<svg width="60.000000" height="59.855438" viewBox="0 0 60 59.8554" fill="none" xmlns="http://www.w3.org/2000/svg" xmlns:xlink="http://www.w3.org/1999/xlink">
	<desc>
			Created with Pixso.
	</desc>
	<defs/>
	<path id="Vector" d="M58.23 11.07C58.75 11.28 59.19 11.64 59.51 12.11C59.83 12.57 59.99 13.12 60 13.68L60 46.16C59.99 46.73 59.83 47.28 59.51 47.74C59.19 48.21 58.75 48.57 58.23 48.77L31.04 59.65C30.37 59.92 29.62 59.92 28.95 59.65L1.76 48.77C1.24 48.57 0.79 48.21 0.48 47.74C0.16 47.27 0 46.73 0 46.16L0 13.68C0 13.12 0.16 12.57 0.48 12.11C0.79 11.64 1.24 11.28 1.76 11.07L27.91 0.61L27.94 0.6L28.95 0.2C29.62 -0.07 30.37 -0.07 31.04 0.2L32.05 0.6L32.09 0.61L58.23 11.07ZM39.01 7.42L15.93 16.65L6.92 13.05L3.75 14.32L3.75 15.82L28.12 25.57L28.12 55.28L30 56.03L31.87 55.28L31.87 25.57L56.25 15.82L56.25 14.32L53.07 13.05L30 22.28L20.98 18.67L44.06 9.44L39.01 7.42Z" fill="#A6A9C7" fill-opacity="1.000000" fill-rule="evenodd"/>
</svg>
