<svg width="10.189819" height="8.108124" viewBox="0 0 10.1898 8.10812" fill="none" xmlns="http://www.w3.org/2000/svg" xmlns:xlink="http://www.w3.org/1999/xlink">
	<desc>
			Created with Pixso.
	</desc>
	<defs/>
	<path id="Vector" d="M8.6 0.25C8.78 0.09 9.01 -0.01 9.25 3.05e-5C9.5 0 9.73 0.09 9.9 0.26C10.08 0.43 10.18 0.66 10.18 0.91C10.19 1.15 10.1 1.39 9.94 1.57L4.95 7.8C4.87 7.9 4.76 7.97 4.65 8.02C4.53 8.07 4.41 8.1 4.28 8.1C4.16 8.11 4.03 8.08 3.91 8.04C3.8 7.99 3.69 7.92 3.6 7.83L0.29 4.52C0.2 4.44 0.13 4.33 0.08 4.22C0.02 4.1 0 3.98 0 3.85C-0.01 3.73 0.02 3.6 0.06 3.48C0.11 3.37 0.18 3.26 0.27 3.17C0.36 3.08 0.46 3.01 0.58 2.97C0.7 2.92 0.82 2.9 0.95 2.9C1.07 2.9 1.2 2.93 1.31 2.98C1.43 3.03 1.53 3.1 1.62 3.2L4.24 5.81L8.58 0.28C8.58 0.27 8.59 0.26 8.6 0.25L8.6 0.25Z" fill="#FFFFFF" fill-opacity="1.000000" fill-rule="nonzero"/>
</svg>
