<svg width="16.666626" height="16.666660" viewBox="0 0 16.6666 16.6667" fill="none" xmlns="http://www.w3.org/2000/svg" xmlns:xlink="http://www.w3.org/1999/xlink">
	<desc>
			Created with Pixso.
	</desc>
	<defs/>
	<path id="Subtract" d="M8.33337 16.6667C12.9357 16.6667 16.6666 12.9357 16.6666 8.33333C16.6666 3.73096 12.9357 0 8.33337 0C3.73096 0 0 3.73096 0 8.33333C0 12.9357 3.73096 16.6667 8.33337 16.6667ZM11.4226 5.24408C11.748 5.56952 11.748 6.09715 11.4226 6.42259L9.51184 8.33333L11.4226 10.2441C11.748 10.5695 11.748 11.0971 11.4226 11.4226C11.0972 11.748 10.5695 11.748 10.244 11.4226L8.33337 9.51184L6.42261 11.4226C6.09717 11.748 5.56946 11.748 5.24402 11.4226C4.9187 11.0971 4.9187 10.5695 5.24402 10.2441L7.15479 8.33333L5.24402 6.42259C4.9187 6.09715 4.9187 5.56952 5.24402 5.24408C5.56946 4.91864 6.09717 4.91864 6.42261 5.24408L8.33337 7.15482L10.244 5.24408C10.5695 4.91864 11.0972 4.91864 11.4226 5.24408Z" clip-rule="evenodd" fill="#808080" fill-opacity="1.000000" fill-rule="evenodd"/>
</svg>
