<svg width="155.000000" height="46.000000" viewBox="0 0 155 46" fill="none" xmlns="http://www.w3.org/2000/svg" xmlns:xlink="http://www.w3.org/1999/xlink">
	<desc>
			Created with Pixso.
	</desc>
	<defs>
		<clipPath id="clip4_136">
			<rect id="Скачать" rx="2.500000" width="154.000000" height="45.000000" transform="translate(0.500000 0.500000)" fill="white" fill-opacity="0"/>
		</clipPath>
	</defs>
	<rect id="Скачать" rx="2.500000" width="154.000000" height="45.000000" transform="translate(0.500000 0.500000)" fill="#FFFFFF" fill-opacity="0"/>
	<g clip-path="url(#clip4_136)">
		<path id="Vector" d="M32.14 12.64L13.77 12.64C13.16 12.64 12.58 12.89 12.15 13.32C11.72 13.75 11.48 14.33 11.48 14.95L11.48 26.45C11.48 27.71 12.51 28.74 13.77 28.74L22.67 28.74L22.67 32.77L16.93 32.77C16.7 32.77 16.48 32.86 16.32 33.02C16.16 33.18 16.07 33.4 16.07 33.63C16.07 33.86 16.16 34.08 16.32 34.24C16.48 34.4 16.7 34.49 16.93 34.49L30.13 34.49C30.36 34.49 30.58 34.4 30.74 34.24C30.9 34.08 31 33.86 31 33.63C31 33.4 30.9 33.18 30.74 33.02C30.58 32.86 30.36 32.77 30.13 32.77L24.39 32.77L24.39 28.74L32.14 28.74C32.75 28.74 33.34 28.5 33.77 28.07C34.2 27.64 34.44 27.05 34.44 26.45L34.44 14.95C34.44 14.33 34.2 13.75 33.77 13.32C33.34 12.89 32.75 12.64 32.14 12.64Z" fill="#428D26" fill-opacity="1.000000" fill-rule="evenodd"/>
		<path id="Vector" d="M16.59 22.42C16.47 22.59 16.42 22.8 16.44 23.01C16.46 23.22 16.56 23.41 16.72 23.55C16.87 23.69 17.07 23.77 17.28 23.77C17.49 23.78 17.69 23.7 17.85 23.57L16.59 22.42ZM21.4 18.39L22.03 17.82C21.95 17.73 21.85 17.66 21.74 17.62C21.63 17.57 21.52 17.54 21.4 17.54C21.28 17.54 21.16 17.57 21.05 17.62C20.94 17.66 20.85 17.73 20.77 17.82L21.4 18.39ZM24.52 21.85L23.89 22.42C23.97 22.51 24.07 22.58 24.17 22.62C24.28 22.67 24.4 22.7 24.52 22.7C24.64 22.7 24.76 22.67 24.86 22.62C24.97 22.58 25.07 22.51 25.15 22.42L24.52 21.85ZM29.34 17.82C29.47 17.65 29.53 17.43 29.51 17.22C29.49 17 29.39 16.81 29.23 16.66C29.07 16.52 28.86 16.44 28.65 16.44C28.43 16.44 28.22 16.52 28.07 16.67L29.33 17.82L29.34 17.82ZM17.86 23.57L22.03 18.97L20.77 17.82L16.59 22.42L17.85 23.57L17.86 23.57ZM20.75 18.97L23.89 22.42L25.15 21.27L22.03 17.82L20.77 18.97L20.75 18.97ZM25.16 22.42L29.33 17.82L28.07 16.67L23.89 21.27L25.15 22.42L25.16 22.42Z" fill="#101010" fill-opacity="1.000000" fill-rule="evenodd"/>
		<path id="Vector" d="M47.64 15.29C49.39 15.29 50.69 14.23 50.94 12.63L50.94 12.56L49.72 12.56L49.72 12.63C49.41 13.64 48.69 14.21 47.64 14.21C46.17 14.21 45.23 13.01 45.23 11.16C45.23 9.28 46.17 8.11 47.64 8.11C48.7 8.11 49.44 8.68 49.7 9.62L49.72 9.74L50.96 9.74L50.96 9.68C50.71 8.09 49.39 7 47.66 7C45.41 7 44 8.59 44 11.14C44 13.71 45.41 15.32 47.66 15.32L47.64 15.29ZM53.62 12.55L55.74 15.17L57.21 15.17L54.68 12.06L57.11 9.3L55.71 9.3L53.62 11.71L53.42 11.71L53.42 9.3L52.24 9.3L52.24 15.17L53.42 15.17L53.42 12.55L53.62 12.55ZM59.75 15.27C60.51 15.27 61.17 14.87 61.5 14.25L61.53 14.25L61.53 15.17L62.71 15.17L62.71 11.12C62.71 9.95 61.83 9.19 60.42 9.19C59 9.19 58.14 9.96 58.05 10.97L58.05 11.03L59.18 11.03L59.18 10.98C59.27 10.51 59.7 10.19 60.38 10.19C61.12 10.19 61.53 10.57 61.53 11.22L61.53 11.66L59.96 11.75C58.59 11.84 57.82 12.46 57.82 13.49C57.82 14.56 58.59 15.27 59.75 15.27ZM59.01 13.47C59.01 12.96 59.41 12.64 60.12 12.6L61.53 12.51L61.53 12.97C61.53 13.73 60.91 14.3 60.07 14.3C59.44 14.3 59.01 13.99 59.01 13.47ZM68.83 15.17L68.83 9.3L67.66 9.3L67.66 11.71C67.41 11.97 66.95 12.13 66.47 12.13C65.66 12.13 65.23 11.75 65.23 10.95L65.23 9.3L64.06 9.3L64.06 11.09C64.06 12.36 64.8 13.17 66.16 13.17C66.73 13.17 67.28 12.98 67.62 12.64L67.66 12.64L67.66 15.17L68.83 15.17ZM72.03 15.27C72.79 15.27 73.45 14.87 73.78 14.25L73.81 14.25L73.81 15.17L74.99 15.17L74.99 11.12C74.99 9.95 74.11 9.19 72.7 9.19C71.28 9.19 70.42 9.96 70.33 10.97L70.33 11.03L71.45 11.03L71.45 10.98C71.55 10.51 71.98 10.19 72.66 10.19C73.4 10.19 73.81 10.57 73.81 11.22L73.81 11.66L72.24 11.75C70.87 11.84 70.1 12.46 70.1 13.49C70.1 14.56 70.87 15.27 72.03 15.27ZM71.29 13.47C71.29 12.96 71.69 12.64 72.4 12.6L73.81 12.51L73.81 12.97C73.81 13.73 73.18 14.3 72.35 14.3C71.72 14.3 71.29 13.99 71.29 13.47ZM80.76 9.3L75.97 9.3L75.97 10.26L77.77 10.26L77.77 15.17L78.95 15.17L78.95 10.26L80.76 10.26L80.76 9.3ZM81.84 15.17L84.12 15.17C85.45 15.17 86.31 14.38 86.31 13.14C86.31 11.89 85.45 11.11 84.12 11.11L83.02 11.11L83.02 9.32L81.84 9.32L81.84 15.17ZM84.01 12.07C84.68 12.07 85.1 12.49 85.1 13.14C85.1 13.78 84.68 14.21 84.01 14.21L83.02 14.21L83.02 12.06L84.01 12.06L84.01 12.07ZM44.64 36.73L49.45 36.73C53.38 36.73 55.7 34.25 55.7 30L55.7 29.98C55.7 25.75 53.37 23.32 49.45 23.32L44.64 23.32L44.64 36.73ZM47 34.7L47 25.35L49.2 25.35C51.82 25.35 53.31 27 53.31 29.98L53.31 30.01C53.31 33.05 51.85 34.7 49.2 34.7L47 34.7ZM61.23 36.92C63.75 36.92 65.18 35.4 65.46 33.88L65.5 33.79L63.38 33.79L63.36 33.85C63.14 34.51 62.4 35.12 61.27 35.12C59.8 35.12 58.86 34.11 58.83 32.37L65.59 32.37L65.59 31.63C65.59 28.67 63.88 26.69 61.11 26.69C58.35 26.69 56.57 28.72 56.57 31.82L56.57 31.84C56.57 34.97 58.32 36.92 61.23 36.92ZM61.14 28.49C62.35 28.49 63.22 29.27 63.38 30.83L58.85 30.83C59.04 29.31 59.93 28.49 61.14 28.49ZM70.47 36.92C72.84 36.92 74.52 35.68 74.52 33.83L74.52 33.82C74.52 32.38 73.74 31.58 71.75 31.13L70.13 30.77C69.14 30.53 68.76 30.16 68.76 29.59C68.76 28.87 69.39 28.39 70.38 28.39C71.45 28.39 72.06 28.97 72.18 29.76L72.18 29.83L74.29 29.83L74.29 29.73C74.21 28.03 72.8 26.69 70.4 26.69C68.05 26.69 66.51 27.89 66.51 29.71C66.51 31.16 67.44 32.09 69.3 32.5L70.91 32.88C71.9 33.11 72.24 33.44 72.24 34.02L72.24 34.04C72.24 34.77 71.58 35.22 70.47 35.22C69.32 35.22 68.69 34.72 68.53 33.87L68.5 33.79L66.26 33.79L66.27 33.87C66.47 35.71 67.93 36.92 70.47 36.92ZM75.7 36.73L77.97 36.73L77.97 33.31L78.74 32.5L81.79 36.73L84.4 36.73L80.42 31.13L84.26 26.89L81.64 26.89L78.02 30.97L77.97 30.97L77.97 23.32L75.7 23.32L75.7 36.73ZM88.5 36.92C88.96 36.92 89.37 36.89 89.62 36.85L89.62 35.11C89.47 35.11 89.3 35.15 89.07 35.15C88.25 35.15 87.83 34.84 87.83 33.88L87.83 28.68L89.62 28.68L89.62 26.89L87.83 26.89L87.83 24.39L85.53 24.39L85.53 26.89L84.16 26.89L84.16 28.67L85.53 28.67L85.53 34.07C85.53 36.1 86.48 36.92 88.51 36.92L88.5 36.92ZM94.91 36.92C97.74 36.92 99.58 35.01 99.58 31.81L99.58 31.79C99.58 28.61 97.72 26.69 94.9 26.69C92.09 26.69 90.23 28.63 90.23 31.79L90.23 31.81C90.23 35 92.06 36.92 94.91 36.92ZM94.91 35.06C93.47 35.06 92.55 33.88 92.55 31.81L92.55 31.79C92.55 29.76 93.48 28.55 94.9 28.55C96.35 28.55 97.27 29.73 97.27 31.79L97.27 31.81C97.27 33.87 96.35 35.06 94.91 35.06ZM100.67 39.98L102.95 39.98L102.95 35.09L102.98 35.09C103.26 35.66 103.69 36.14 104.23 36.47C104.77 36.8 105.39 36.96 106.02 36.94C108.44 36.94 110 35 110 31.84L110 31.82C110 28.65 108.44 26.7 105.99 26.7C104.62 26.7 103.54 27.42 103 28.6L102.95 28.6L102.95 26.9L100.67 26.9L100.67 40L100.67 39.98ZM105.31 34.98C103.91 34.98 102.92 33.74 102.92 31.81C102.92 29.87 103.92 28.64 105.31 28.64C106.77 28.64 107.68 29.85 107.68 31.81C107.68 33.77 106.77 34.98 105.31 34.98Z" fill="#FFFFFF" fill-opacity="1.000000" fill-rule="nonzero"/>
	</g>
	<rect id="Скачать" rx="2.500000" width="154.000000" height="45.000000" transform="translate(0.500000 0.500000)" stroke="#5B5B5B" stroke-opacity="1.000000" stroke-width="1.000000"/>
</svg>
