<svg width="13.333374" height="15.000000" viewBox="0 0 13.3334 15" fill="none" xmlns="http://www.w3.org/2000/svg" xmlns:xlink="http://www.w3.org/1999/xlink">
	<desc>
			Created with Pixso.
	</desc>
	<defs/>
	<path id="Vector" d="M0 9.16C0 7.7 0.34 6.4 1.04 5.27C1.73 4.13 2.5 3.17 3.33 2.39C4.16 1.61 4.93 1.02 5.62 0.61L6.66 0L6.66 2.75C6.66 3.26 6.84 3.67 7.18 3.96C7.53 4.26 7.92 4.41 8.35 4.41C8.59 4.41 8.81 4.36 9.03 4.27C9.24 4.17 9.44 4.01 9.62 3.79L10 3.33C11 3.91 11.8 4.72 12.41 5.76C13.02 6.79 13.33 7.93 13.33 9.16C13.33 10.38 13.03 11.5 12.43 12.51C11.84 13.51 11.05 14.31 10.08 14.89C10.31 14.56 10.5 14.19 10.63 13.8C10.76 13.4 10.83 12.98 10.83 12.54C10.83 11.98 10.72 11.46 10.52 10.96C10.31 10.47 10.01 10.03 9.62 9.64L6.66 6.75L3.72 9.64C3.32 10.04 3.02 10.49 2.81 10.97C2.6 11.46 2.5 11.98 2.5 12.54C2.5 12.98 2.56 13.4 2.69 13.8C2.83 14.19 3.01 14.56 3.25 14.89C2.27 14.31 1.49 13.51 0.89 12.51C0.29 11.5 0 10.38 0 9.16ZM6.66 9.08L8.43 10.81C8.67 11.04 8.85 11.31 8.97 11.6C9.1 11.89 9.16 12.2 9.16 12.54C9.16 13.22 8.92 13.8 8.43 14.28C7.95 14.75 7.36 14.99 6.66 15C5.97 15 5.38 14.76 4.89 14.28C4.4 13.8 4.16 13.22 4.16 12.54C4.16 12.22 4.22 11.91 4.35 11.61C4.47 11.31 4.65 11.04 4.89 10.81L6.66 9.08Z" fill="#FF8743" fill-opacity="1.000000" fill-rule="nonzero"/>
</svg>
