<svg width="17.490005" height="17.489990" viewBox="0 0 17.49 17.49" fill="none" xmlns="http://www.w3.org/2000/svg" xmlns:xlink="http://www.w3.org/1999/xlink">
	<desc>
			Created with Pixso.
	</desc>
	<defs/>
	<path id="Vector" d="M12.5 11L11.71 11L11.43 10.73C12.41 9.59 13 8.1 13 6.5C13 2.91 10.09 0 6.5 0C2.91 0 0 2.91 0 6.5C0 10.09 2.91 13 6.5 13C8.1 13 9.59 12.41 10.73 11.43L11 11.71L11 12.5L16 17.49L17.49 16L12.5 11ZM6.5 11C4 11 2 8.98 2 6.5C2 4.01 4 2 6.5 2C8.99 2 11 4.01 11 6.5C11 8.98 8.99 11 6.5 11Z" fill="#5A5A5A" fill-opacity="1.000000" fill-rule="nonzero"/>
</svg>
