<svg width="24.000000" height="24.000000" viewBox="0 0 24 24" fill="none" xmlns="http://www.w3.org/2000/svg" xmlns:xlink="http://www.w3.org/1999/xlink">
	<desc>
			Created with Pixso.
	</desc>
	<defs>
		<clipPath id="clip4_230">
			<rect rx="0.000000" width="22.000000" height="22.000000" transform="translate(1.000000 1.000000)" fill="white" fill-opacity="0"/>
		</clipPath>
	</defs>
	<rect rx="0.000000" width="22.000000" height="22.000000" transform="translate(1.000000 1.000000)" fill="#FFFFFF" fill-opacity="0"/>
	<g clip-path="url(#clip4_230)">
		<path d="M8 22C7.44 22 7 21.55 7 21C7 20.44 7.44 20 8 20C8.55 20 9 20.44 9 21C9 21.55 8.55 22 8 22Z" stroke="#FFFFFF" stroke-opacity="1.000000" stroke-width="2.000000" stroke-linejoin="round"/>
		<path d="M19 22C18.44 22 18 21.55 18 21C18 20.44 18.44 20 19 20C19.55 20 20 20.44 20 21C20 21.55 19.55 22 19 22Z" stroke="#FFFFFF" stroke-opacity="1.000000" stroke-width="2.000000" stroke-linejoin="round"/>
		<path d="M2.05 2.05L4.05 2.05L6.71 14.47C6.8 14.92 7.06 15.33 7.42 15.62C7.79 15.9 8.24 16.06 8.71 16.05L18.49 16.05C18.94 16.04 19.38 15.89 19.74 15.6C20.09 15.32 20.34 14.92 20.44 14.48L22.09 7.05L5.12 7.05" stroke="#FFFFFF" stroke-opacity="1.000000" stroke-width="2.000000" stroke-linejoin="round" stroke-linecap="round"/>
	</g>
</svg>
