<svg width="20.274841" height="16.895691" viewBox="0 0 20.2748 16.8957" fill="none" xmlns="http://www.w3.org/2000/svg" xmlns:xlink="http://www.w3.org/1999/xlink">
	<desc>
			Created with Pixso.
	</desc>
	<defs/>
	<path d="M15.61 16.73C15.45 16.65 14.33 15.85 13.13 14.97C11.92 14.09 10.88 13.36 10.82 13.36C10.75 13.36 10.13 13.9 9.43 14.56C8.53 15.41 8.1 15.77 7.95 15.81C7.82 15.84 7.7 15.83 7.67 15.8C7.63 15.77 7.68 14.7 7.77 13.44C7.93 11.23 7.94 11.14 8.1 10.99C8.19 10.9 10.09 9.19 12.33 7.19C14.57 5.18 16.48 3.46 16.57 3.36C16.72 3.2 16.72 3.18 16.62 3.08C16.53 2.99 16.47 2.98 16.3 3.05C16.18 3.09 13.68 4.63 10.73 6.48C7.78 8.33 5.33 9.84 5.28 9.84C5.08 9.84 0.46 8.36 0.3 8.24C0.06 8.07 -0.05 7.83 0.01 7.65C0.13 7.33 0.64 7.07 2.48 6.37C3.5 5.98 5.8 5.09 7.6 4.41C19.02 0.02 19.09 0 19.42 0C19.82 0 20.11 0.24 20.23 0.68C20.32 1.05 20.38 0.75 19 7.22C18.75 8.41 18.22 10.87 17.83 12.69C17.45 14.51 17.08 16.12 17.02 16.27C16.78 16.87 16.21 17.06 15.61 16.73L15.61 16.73Z" fill="#5B5B5B" fill-opacity="1.000000" fill-rule="nonzero"/>
</svg>
