<svg width="16.895691" height="16.895691" viewBox="0 0 16.8957 16.8957" fill="none" xmlns="http://www.w3.org/2000/svg" xmlns:xlink="http://www.w3.org/1999/xlink">
	<desc>
			Created with Pixso.
	</desc>
	<defs/>
	<path d="M5.85 0L11.04 0C15.77 0 16.89 1.12 16.89 5.85L16.89 11.04C16.89 15.77 15.77 16.89 11.04 16.89L5.85 16.89C1.12 16.89 0 15.77 0 11.04L0 5.85C0 1.12 1.12 0 5.85 0ZM13.83 5.81C13.91 5.55 13.83 5.36 13.46 5.36L12.23 5.36C11.92 5.36 11.78 5.53 11.69 5.71C11.69 5.71 11.06 7.23 10.18 8.22C9.89 8.51 9.76 8.6 9.61 8.6C9.52 8.6 9.41 8.51 9.41 8.25L9.41 5.8C9.41 5.49 9.32 5.35 9.06 5.35L7.13 5.35C6.93 5.35 6.82 5.49 6.82 5.63C6.82 5.93 7.26 6 7.3 6.84L7.3 8.65C7.3 9.05 7.23 9.12 7.08 9.12C6.66 9.12 5.65 7.58 5.04 5.83C4.92 5.48 4.8 5.35 4.49 5.35L3.25 5.35C2.89 5.35 2.83 5.52 2.83 5.69C2.83 6.02 3.25 7.64 4.78 9.78C5.79 11.25 7.23 12.04 8.53 12.04C9.32 12.04 9.41 11.86 9.41 11.56L9.41 10.45C9.41 10.09 9.49 10.03 9.74 10.03C9.92 10.03 10.24 10.13 10.96 10.83C11.8 11.67 11.94 12.05 12.41 12.05L13.64 12.05C13.99 12.05 14.16 11.87 14.06 11.53C13.96 11.18 13.55 10.68 13.03 10.08C12.74 9.75 12.31 9.38 12.18 9.2C12 8.96 12.05 8.87 12.18 8.65C12.17 8.65 13.67 6.53 13.83 5.81Z" fill="#5B5B5B" fill-opacity="1.000000" fill-rule="evenodd"/>
</svg>
