<svg width="16.000000" height="16.000000" viewBox="0 0 16 16" fill="none" xmlns="http://www.w3.org/2000/svg" xmlns:xlink="http://www.w3.org/1999/xlink">
	<desc>
			Created with Pixso.
	</desc>
	<defs/>
	<g opacity="0.300000">
		<path id="Vector (Stroke)" d="M7.33 2.75C4.8 2.75 2.75 4.8 2.75 7.33C2.75 9.86 4.8 11.91 7.33 11.91C9.86 11.91 11.91 9.86 11.91 7.33C11.91 4.8 9.86 2.75 7.33 2.75ZM1.25 7.33C1.25 3.97 3.97 1.25 7.33 1.25C10.69 1.25 13.41 3.97 13.41 7.33C13.41 10.69 10.69 13.41 7.33 13.41C3.97 13.41 1.25 10.69 1.25 7.33Z" fill="#333333" fill-opacity="1.000000" fill-rule="evenodd"/>
		<path id="Vector (Stroke)" d="M10.56 10.56C10.86 10.27 11.33 10.27 11.63 10.56L14.53 13.46C14.82 13.76 14.82 14.23 14.53 14.53C14.23 14.82 13.76 14.82 13.46 14.53L10.56 11.63C10.27 11.33 10.27 10.86 10.56 10.56Z" fill="#333333" fill-opacity="1.000000" fill-rule="evenodd"/>
	</g>
</svg>
