<svg width="194.099274" height="34.334763" viewBox="0 0 194.099 34.3348" fill="none" xmlns="http://www.w3.org/2000/svg" xmlns:xlink="http://www.w3.org/1999/xlink">
	<desc>
			Created with Pixso.
	</desc>
	<defs/>
	<path id="Vector" d="M188.43 20.71L192.97 20.71C192.87 22.2 192.46 23.52 191.74 24.67C191.02 25.83 190.01 26.73 188.71 27.38C187.43 28.02 185.88 28.35 184.07 28.35C182.65 28.35 181.38 28.11 180.26 27.62C179.14 27.12 178.17 26.42 177.37 25.49C176.59 24.57 175.98 23.46 175.57 22.15C175.15 20.85 174.95 19.39 174.95 17.77L174.95 16.23C174.95 14.61 175.16 13.15 175.58 11.85C176.02 10.53 176.64 9.41 177.44 8.49C178.24 7.57 179.21 6.86 180.33 6.37C181.46 5.87 182.71 5.62 184.1 5.62C185.94 5.62 187.5 5.96 188.76 6.62C190.04 7.29 191.02 8.21 191.72 9.39C192.43 10.56 192.85 11.9 193 13.39L188.44 13.39C188.39 12.5 188.21 11.75 187.91 11.13C187.61 10.51 187.15 10.03 186.53 9.72C185.92 9.4 185.11 9.24 184.1 9.24C183.34 9.24 182.68 9.38 182.11 9.66C181.54 9.94 181.07 10.37 180.68 10.95C180.3 11.53 180.01 12.26 179.82 13.14C179.64 14.01 179.55 15.03 179.55 16.2L179.55 17.77C179.55 18.91 179.63 19.92 179.8 20.79C179.98 21.65 180.24 22.38 180.59 22.97C180.96 23.56 181.42 24.01 181.99 24.31C182.57 24.6 183.26 24.75 184.07 24.75C185.02 24.75 185.8 24.6 186.42 24.29C187.04 23.99 187.51 23.54 187.83 22.94C188.17 22.35 188.37 21.6 188.43 20.71Z" fill="#FFFFFF" fill-opacity="1.000000" fill-rule="evenodd"/>
	<path id="Vector" d="M193.01 24.46Q193.84 22.79 193.96 20.77L194.03 19.71L187.49 19.71L187.43 20.64Q187.35 21.76 186.96 22.47Q186.8 22.74 186.59 22.96Q186.33 23.22 185.98 23.4Q185.26 23.75 184.07 23.75Q183.09 23.75 182.46 23.43Q182.32 23.35 182.18 23.26Q181.75 22.95 181.45 22.46Q181.01 21.72 180.78 20.59Q180.55 19.38 180.55 17.77L180.55 16.2Q180.55 14.55 180.8 13.35Q181.04 12.21 181.52 11.51Q181.92 10.9 182.49 10.59Q182.52 10.57 182.56 10.55Q183.2 10.24 184.1 10.24Q185.37 10.24 186.08 10.61Q186.36 10.76 186.58 10.97Q186.84 11.22 187.01 11.57Q187.38 12.32 187.44 13.45L187.5 14.39L194.09 14.39L193.99 13.3Q193.78 11.02 192.76 9.18Q192.67 9.03 192.58 8.88Q192.16 8.17 191.63 7.58Q190.63 6.48 189.23 5.74Q187.11 4.62 184.1 4.62Q181.81 4.62 179.93 5.45Q179.01 5.86 178.21 6.44Q177.38 7.05 176.68 7.84Q175.35 9.37 174.63 11.54Q173.95 13.65 173.95 16.23L173.95 17.77Q173.95 20.35 174.61 22.46Q175.3 24.61 176.62 26.15Q177.22 26.85 177.94 27.4Q178.82 28.08 179.86 28.54Q181.74 29.35 184.07 29.35Q187.02 29.35 189.16 28.27Q190.69 27.51 191.75 26.32Q192.21 25.8 192.58 25.21Q192.81 24.84 193.01 24.46ZM191.96 20.71L192.97 20.71C192.94 21.05 192.91 21.39 192.85 21.71C192.67 22.8 192.3 23.79 191.74 24.67C191.02 25.83 190.01 26.73 188.71 27.38Q186.79 28.35 184.07 28.35Q181.94 28.35 180.26 27.62Q179.36 27.22 178.59 26.64L178.59 26.64Q177.93 26.14 177.37 25.49Q176.19 24.11 175.57 22.15Q174.95 20.2 174.95 17.77L174.95 16.23Q174.95 13.8 175.58 11.85Q176.24 9.87 177.44 8.49Q178.03 7.81 178.75 7.29Q179.48 6.74 180.33 6.37Q182.02 5.62 184.1 5.62Q186.86 5.62 188.76 6.62Q190.05 7.3 190.95 8.32Q191.38 8.82 191.72 9.39Q191.77 9.48 191.82 9.56Q192.56 10.85 192.85 12.39Q192.95 12.88 193 13.39L188.44 13.39Q188.37 12.06 187.91 11.13C187.61 10.51 187.15 10.03 186.53 9.72Q185.62 9.24 184.1 9.24Q182.96 9.24 182.11 9.66C181.54 9.94 181.07 10.37 180.68 10.95Q180.11 11.82 179.82 13.14Q179.55 14.44 179.55 16.2L179.55 17.77Q179.55 19.48 179.8 20.79C179.98 21.65 180.24 22.38 180.59 22.97C180.96 23.56 181.42 24.01 181.99 24.31Q182.85 24.75 184.07 24.75Q185.5 24.75 186.42 24.29C187.04 23.99 187.51 23.54 187.83 22.94C188.17 22.35 188.37 21.6 188.43 20.71L191.96 20.71Z" fill="#000000" fill-opacity="1.000000" fill-rule="evenodd"/>
	<path id="Vector" d="M174 24.49L174 28.04L162.88 28.04L162.88 24.49L174 24.49ZM164.35 5.94L164.35 28.04L159.79 28.04L159.79 5.94L164.35 5.94Z" fill="#FFFFFF" fill-opacity="1.000000" fill-rule="evenodd"/>
	<path id="Vector" d="M161.88 29.04L175 29.04L175 23.49L165.35 23.49L165.35 4.94L158.79 4.94L158.79 29.04L161.88 29.04ZM161.88 28.04L162.88 28.04L162.88 24.49L164.35 24.49L164.35 28.04L174 28.04L174 24.49L164.35 24.49L164.35 5.94L159.79 5.94L159.79 28.04L161.88 28.04Z" fill="#000000" fill-opacity="1.000000" fill-rule="evenodd"/>
	<path id="Vector" d="M148.36 20.17L142.73 20.17L142.73 16.61L148.36 16.61C149.23 16.61 149.94 16.47 150.49 16.19C151.03 15.89 151.43 15.49 151.69 14.97C151.94 14.46 152.07 13.88 152.07 13.23C152.07 12.57 151.94 11.96 151.69 11.39C151.43 10.82 151.03 10.37 150.49 10.02C149.94 9.68 149.23 9.51 148.36 9.51L144.31 9.51L144.31 28.04L139.75 28.04L139.75 5.94L148.36 5.94C150.09 5.94 151.58 6.25 152.81 6.88C154.06 7.5 155.01 8.35 155.67 9.45C156.32 10.54 156.65 11.79 156.65 13.2C156.65 14.62 156.32 15.86 155.67 16.9C155.01 17.94 154.06 18.75 152.81 19.32C151.58 19.88 150.09 20.17 148.36 20.17Z" fill="#FFFFFF" fill-opacity="1.000000" fill-rule="evenodd"/>
	<path id="Vector" d="M143.31 16.61L142.73 16.61L142.73 20.17L144.31 20.17L144.31 28.04L139.75 28.04L139.75 5.94L148.36 5.94Q150.96 5.94 152.81 6.88Q154.24 7.59 155.15 8.72Q155.43 9.06 155.67 9.45Q155.83 9.73 155.97 10.02Q156.65 11.44 156.65 13.2Q156.65 15.22 155.77 16.73Q155.72 16.82 155.67 16.9Q155.48 17.2 155.25 17.48Q154.32 18.63 152.81 19.32C151.58 19.88 150.09 20.17 148.36 20.17L144.31 20.17L144.31 16.61L148.36 16.61C149.23 16.61 149.94 16.47 150.49 16.19Q151.06 15.88 151.42 15.41L151.42 15.41Q151.57 15.21 151.69 14.97Q152.07 14.2 152.07 13.23C152.07 12.57 151.94 11.96 151.69 11.39Q151.54 11.07 151.33 10.79L151.33 10.79Q150.99 10.34 150.49 10.02Q149.67 9.51 148.36 9.51L144.31 9.51L144.31 16.61L143.31 16.61ZM145.31 15.61L148.36 15.61Q149.42 15.61 150.03 15.3Q150.42 15.09 150.65 14.77Q150.73 14.66 150.79 14.53Q151.07 13.97 151.07 13.23Q151.07 12.52 150.82 11.91Q150.8 11.85 150.77 11.8Q150.69 11.61 150.57 11.45Q150.33 11.11 149.96 10.87Q149.38 10.51 148.36 10.51L145.31 10.51L145.31 15.61ZM145.31 21.17L148.36 21.17Q151.18 21.17 153.23 20.23Q154.87 19.48 155.93 18.23Q156.25 17.86 156.51 17.44Q156.63 17.24 156.74 17.05Q157.65 15.37 157.65 13.2Q157.65 11.3 156.94 9.73Q156.76 9.32 156.52 8.93Q156.2 8.4 155.81 7.94Q154.79 6.75 153.26 5.99Q151.2 4.94 148.36 4.94L138.75 4.94L138.75 29.04L145.31 29.04L145.31 21.17Z" fill="#000000" fill-opacity="1.000000" fill-rule="evenodd"/>
	<path id="Vector" d="M130.25 28.35C128.98 28.35 127.83 28.15 126.82 27.74C125.81 27.33 124.95 26.75 124.24 26.03C123.54 25.3 123.01 24.45 122.63 23.49C122.26 22.52 122.07 21.49 122.07 20.39L122.07 19.79C122.07 18.54 122.25 17.4 122.6 16.37C122.96 15.34 123.46 14.44 124.12 13.68C124.79 12.92 125.6 12.34 126.55 11.94C127.5 11.52 128.57 11.32 129.77 11.32C130.93 11.32 131.96 11.51 132.86 11.89C133.76 12.28 134.52 12.82 135.13 13.53C135.74 14.24 136.21 15.09 136.52 16.08C136.84 17.06 136.99 18.16 136.99 19.36L136.99 21.18L123.94 21.18L123.94 18.27L132.7 18.27L132.7 17.93C132.7 17.33 132.59 16.79 132.36 16.31C132.15 15.82 131.83 15.44 131.39 15.16C130.96 14.87 130.4 14.73 129.72 14.73C129.14 14.73 128.65 14.86 128.23 15.11C127.82 15.36 127.48 15.72 127.22 16.17C126.96 16.63 126.77 17.17 126.64 17.78C126.52 18.39 126.46 19.06 126.46 19.79L126.46 20.39C126.46 21.05 126.55 21.66 126.73 22.22C126.92 22.77 127.19 23.25 127.54 23.66C127.89 24.06 128.31 24.38 128.81 24.6C129.32 24.82 129.89 24.93 130.53 24.93C131.32 24.93 132.05 24.78 132.73 24.48C133.42 24.16 134.01 23.69 134.5 23.07L136.63 25.37C136.28 25.87 135.81 26.34 135.22 26.8C134.63 27.26 133.92 27.63 133.09 27.92C132.26 28.21 131.32 28.35 130.25 28.35Z" fill="#FFFFFF" fill-opacity="1.000000" fill-rule="nonzero"/>
	<path id="Vector" d="M123.82 27.01Q124.93 28.05 126.44 28.67L126.45 28.67Q128.15 29.35 130.25 29.35Q132.01 29.35 133.42 28.87Q134.82 28.37 135.82 27.6Q136.84 26.82 137.45 25.94L137.91 25.28L135.05 22.18L137.99 22.18L137.99 19.36Q137.99 17.4 137.48 15.78Q136.94 14.09 135.88 12.88Q135.57 12.51 135.2 12.19Q134.35 11.44 133.26 10.97Q131.72 10.32 129.77 10.32Q127.77 10.32 126.16 11.02Q125.21 11.42 124.43 12.03Q123.85 12.47 123.36 13.03Q123.35 13.04 123.34 13.05Q122.24 14.33 121.66 16.05Q121.07 17.75 121.07 19.79L121.07 20.39Q121.07 21.87 121.48 23.21Q121.58 23.54 121.7 23.85Q122.08 24.83 122.66 25.67Q123.05 26.23 123.52 26.72Q123.67 26.87 123.82 27.01ZM133.92 22.18L127.79 22.18Q127.99 22.65 128.3 23.01Q128.41 23.13 128.53 23.24Q128.83 23.51 129.22 23.69Q129.78 23.93 130.53 23.93Q131.41 23.93 132.17 23.63Q132.25 23.6 132.32 23.56Q132.44 23.51 132.56 23.44Q133.22 23.08 133.72 22.45L133.92 22.18ZM126.72 22.18Q126.57 21.71 126.5 21.18L136.99 21.18L136.99 19.36Q136.99 17.55 136.52 16.08C136.21 15.09 135.74 14.24 135.13 13.53Q134.88 13.25 134.61 13L134.61 13Q133.85 12.31 132.86 11.89Q131.51 11.32 129.77 11.32Q127.98 11.32 126.55 11.94Q125.67 12.31 124.96 12.88Q124.51 13.24 124.12 13.68Q123.13 14.82 122.6 16.37Q122.07 17.92 122.07 19.79L122.07 20.39Q122.07 21.8 122.48 23.07L122.48 23.07Q122.55 23.28 122.63 23.49C123.01 24.45 123.54 25.3 124.24 26.03Q124.32 26.1 124.39 26.18Q125.41 27.16 126.82 27.74Q128.34 28.35 130.25 28.35Q131.85 28.35 133.09 27.92C133.92 27.63 134.63 27.26 135.22 26.8C135.81 26.34 136.28 25.87 136.63 25.37L135.19 23.81L134.5 23.07C134.29 23.34 134.06 23.58 133.81 23.79C133.48 24.07 133.12 24.3 132.73 24.48C132.05 24.78 131.32 24.93 130.53 24.93Q129.57 24.93 128.81 24.6C128.31 24.38 127.89 24.06 127.54 23.66C127.19 23.25 126.92 22.77 126.73 22.22Q126.73 22.2 126.72 22.18ZM126.77 17.27Q126.7 17.52 126.64 17.78Q126.59 18.02 126.56 18.27L132.7 18.27L132.7 17.93Q132.7 17.59 132.65 17.27Q132.57 16.75 132.36 16.31Q132.18 15.9 131.9 15.59Q131.68 15.34 131.39 15.16Q130.74 14.73 129.72 14.73Q128.86 14.73 128.23 15.11Q128.12 15.18 128.01 15.26L128.01 15.26Q127.54 15.62 127.22 16.17Q126.95 16.66 126.77 17.27ZM131.63 17.27Q131.57 16.98 131.46 16.73L131.45 16.72L131.45 16.71Q131.33 16.44 131.13 16.23Q131 16.1 130.85 15.99Q130.44 15.73 129.72 15.73Q129.14 15.73 128.75 15.96Q128.74 15.97 128.72 15.98Q128.34 16.23 128.08 16.67Q127.93 16.94 127.82 17.27L131.63 17.27Z" fill="#000000" fill-opacity="1.000000" fill-rule="evenodd"/>
	<path id="Vector" d="M115.98 15.2L115.98 28.04L111.61 28.04L111.61 11.62L115.72 11.62L115.98 15.2ZM120.93 11.51L120.85 15.57C120.64 15.54 120.38 15.51 120.08 15.49C119.79 15.46 119.52 15.44 119.28 15.44C118.66 15.44 118.12 15.53 117.67 15.69C117.22 15.84 116.85 16.07 116.54 16.37C116.25 16.67 116.03 17.04 115.88 17.48C115.73 17.91 115.65 18.41 115.63 18.97L114.75 18.69C114.75 17.63 114.86 16.65 115.07 15.76C115.28 14.86 115.59 14.08 116 13.41C116.41 12.74 116.92 12.23 117.52 11.86C118.11 11.5 118.8 11.32 119.56 11.32C119.81 11.32 120.06 11.34 120.31 11.38C120.56 11.41 120.77 11.45 120.93 11.51Z" fill="#FFFFFF" fill-opacity="1.000000" fill-rule="nonzero"/>
	<path id="Vector" d="M120.01 16.49Q120.43 16.52 120.71 16.56L121.83 16.72L121.94 10.82L121.28 10.58Q120.93 10.45 120.45 10.39Q120 10.32 119.56 10.32Q118.48 10.32 117.57 10.71Q117.27 10.84 116.99 11.01Q116.95 11.03 116.91 11.06Q116.8 11.13 116.7 11.2L116.65 10.62L110.61 10.62L110.61 29.04L116.98 29.04L116.98 17.44Q117.1 17.24 117.25 17.08Q117.54 16.79 118 16.63Q118.52 16.44 119.28 16.44Q119.59 16.44 119.98 16.48L120 16.49L120.01 16.49ZM115.98 20.12L115.98 17.21C116.13 16.89 116.31 16.61 116.54 16.37C116.68 16.24 116.82 16.12 116.98 16.02C117.19 15.88 117.42 15.77 117.67 15.69C118.12 15.53 118.66 15.44 119.28 15.44Q119.55 15.44 119.86 15.47Q119.97 15.48 120.08 15.49C120.38 15.51 120.64 15.54 120.85 15.57L120.87 14.56L120.93 11.51C120.77 11.45 120.56 11.41 120.31 11.38Q119.93 11.32 119.56 11.32Q118.62 11.32 117.86 11.68Q117.68 11.76 117.52 11.86C117.25 12.02 117.01 12.21 116.78 12.43C116.49 12.71 116.23 13.03 116 13.41Q115.93 13.52 115.87 13.63L115.76 12.06L115.72 11.62L111.61 11.62L111.61 28.04L115.98 28.04L115.98 20.12Z" fill="#000000" fill-opacity="1.000000" fill-rule="evenodd"/>
	<path id="Vector" d="M93.36 20L93.36 19.68C93.36 18.48 93.53 17.37 93.88 16.36C94.22 15.33 94.72 14.45 95.38 13.7C96.04 12.95 96.85 12.37 97.81 11.95C98.77 11.53 99.87 11.32 101.12 11.32C102.36 11.32 103.47 11.53 104.44 11.95C105.42 12.37 106.23 12.95 106.89 13.7C107.56 14.45 108.06 15.33 108.41 16.36C108.75 17.37 108.92 18.48 108.92 19.68L108.92 20C108.92 21.19 108.75 22.3 108.41 23.32C108.06 24.34 107.56 25.22 106.89 25.98C106.23 26.73 105.42 27.31 104.46 27.73C103.5 28.14 102.39 28.35 101.15 28.35C99.9 28.35 98.8 28.14 97.82 27.73C96.86 27.31 96.05 26.73 95.38 25.98C94.72 25.22 94.22 24.34 93.88 23.32C93.53 22.3 93.36 21.19 93.36 20ZM97.73 19.68L97.73 20C97.73 20.69 97.79 21.33 97.92 21.93C98.04 22.52 98.23 23.05 98.49 23.51C98.77 23.95 99.12 24.3 99.56 24.55C99.99 24.81 100.52 24.93 101.15 24.93C101.76 24.93 102.28 24.81 102.71 24.55C103.15 24.3 103.5 23.95 103.76 23.51C104.02 23.05 104.22 22.52 104.34 21.93C104.47 21.33 104.54 20.69 104.54 20L104.54 19.68C104.54 19.01 104.47 18.38 104.34 17.8C104.22 17.2 104.02 16.67 103.75 16.22C103.48 15.75 103.13 15.39 102.7 15.13C102.26 14.86 101.74 14.73 101.12 14.73C100.5 14.73 99.98 14.86 99.54 15.13C99.12 15.39 98.77 15.75 98.49 16.22C98.23 16.67 98.04 17.2 97.92 17.8C97.79 18.38 97.73 19.01 97.73 19.68Z" fill="#FFFFFF" fill-opacity="1.000000" fill-rule="nonzero"/>
	<path id="Vector" d="M92.93 16.03Q92.36 17.71 92.36 19.68L92.36 20Q92.36 21.95 92.93 23.65Q93.4 25.03 94.23 26.15Q94.43 26.4 94.63 26.65Q94.97 27.02 95.34 27.35Q96.26 28.14 97.43 28.65Q99.08 29.35 101.15 29.35Q103.22 29.35 104.86 28.64Q106.05 28.13 106.97 27.31Q107.33 27 107.64 26.64Q107.83 26.42 108.01 26.18Q108.87 25.06 109.35 23.64Q109.92 21.95 109.92 20L109.92 19.68Q109.92 17.71 109.35 16.04Q108.82 14.46 107.83 13.26Q107.74 13.15 107.64 13.04Q107.33 12.69 106.99 12.39Q106.06 11.55 104.85 11.04Q103.2 10.32 101.12 10.32Q99.04 10.32 97.41 11.03Q96.22 11.55 95.3 12.36Q94.95 12.68 94.63 13.04Q94.55 13.13 94.47 13.23Q93.47 14.44 92.93 16.03ZM93.36 20L93.36 19.68Q93.36 17.87 93.88 16.36Q94.39 14.84 95.36 13.72Q95.37 13.71 95.38 13.7Q95.62 13.42 95.9 13.17L95.9 13.17Q96.72 12.42 97.81 11.95Q99.25 11.32 101.12 11.32Q102.99 11.32 104.44 11.95Q105.6 12.45 106.46 13.25Q106.68 13.46 106.89 13.7Q106.95 13.77 107.02 13.85Q107.92 14.92 108.41 16.36Q108.92 17.87 108.92 19.68L108.92 20Q108.92 21.79 108.41 23.32Q107.96 24.62 107.17 25.65Q107.03 25.82 106.89 25.98C106.23 26.73 105.42 27.31 104.46 27.73Q103.02 28.35 101.15 28.35Q99.28 28.35 97.82 27.73Q96.78 27.27 95.96 26.56L95.96 26.56Q95.65 26.29 95.38 25.98Q95.29 25.88 95.21 25.78Q94.35 24.71 93.88 23.32Q93.36 21.79 93.36 20ZM103.75 16.22Q103.47 15.73 103.07 15.4L103.07 15.4Q102.9 15.25 102.7 15.13Q102.05 14.73 101.12 14.73C100.5 14.73 99.98 14.86 99.54 15.13Q99.43 15.2 99.32 15.27L99.32 15.27Q98.83 15.64 98.49 16.22C98.23 16.67 98.04 17.2 97.92 17.8Q97.73 18.68 97.73 19.68L97.73 20Q97.73 21.03 97.92 21.93C98.04 22.52 98.23 23.05 98.49 23.51C98.77 23.95 99.12 24.3 99.56 24.55Q100.21 24.93 101.15 24.93C101.76 24.93 102.28 24.81 102.71 24.55C103.15 24.3 103.5 23.95 103.76 23.51Q104.16 22.82 104.34 21.93Q104.54 21.03 104.54 20L104.54 19.68Q104.54 18.68 104.34 17.8C104.22 17.2 104.02 16.67 103.75 16.22ZM99.35 22.99Q99.55 23.32 99.83 23.54Q99.94 23.62 100.06 23.69Q100.48 23.93 101.15 23.93Q101.79 23.93 102.21 23.69Q102.36 23.6 102.48 23.5Q102.73 23.29 102.9 23Q103.21 22.46 103.36 21.73Q103.54 20.92 103.54 20L103.54 19.68Q103.54 18.79 103.36 18.02Q103.21 17.27 102.89 16.73L102.88 16.72L102.88 16.71Q102.67 16.34 102.36 16.1Q102.27 16.04 102.18 15.98Q101.77 15.73 101.12 15.73Q100.47 15.73 100.06 15.98Q99.64 16.24 99.36 16.72Q99.05 17.26 98.9 18Q98.73 18.78 98.73 19.68L98.73 20Q98.73 20.93 98.9 21.73Q99.04 22.46 99.35 22.99Z" fill="#000000" fill-opacity="1.000000" fill-rule="evenodd"/>
	<path id="Vector" d="M84.63 24.93C85.17 24.93 85.64 24.83 86.06 24.63C86.47 24.42 86.8 24.12 87.03 23.75C87.27 23.36 87.4 22.91 87.41 22.4L91.53 22.4C91.51 23.55 91.21 24.58 90.6 25.48C89.99 26.37 89.18 27.07 88.15 27.59C87.13 28.1 85.99 28.35 84.72 28.35C83.45 28.35 82.34 28.14 81.38 27.71C80.44 27.29 79.66 26.7 79.03 25.95C78.4 25.19 77.93 24.31 77.62 23.31C77.31 22.3 77.15 21.21 77.15 20.06L77.15 19.62C77.15 18.46 77.31 17.37 77.62 16.37C77.93 15.36 78.4 14.48 79.03 13.73C79.66 12.97 80.44 12.38 81.38 11.95C82.33 11.53 83.43 11.32 84.69 11.32C86.04 11.32 87.22 11.57 88.23 12.09C89.25 12.61 90.05 13.34 90.63 14.31C91.22 15.26 91.51 16.39 91.53 17.69L87.41 17.69C87.4 17.14 87.28 16.65 87.06 16.2C86.85 15.76 86.54 15.4 86.12 15.14C85.72 14.87 85.21 14.73 84.62 14.73C83.98 14.73 83.46 14.87 83.05 15.14C82.65 15.4 82.34 15.77 82.11 16.23C81.89 16.69 81.73 17.21 81.64 17.8C81.56 18.37 81.52 18.98 81.52 19.62L81.52 20.06C81.52 20.7 81.56 21.31 81.64 21.9C81.72 22.48 81.87 23 82.1 23.46C82.33 23.92 82.65 24.27 83.05 24.54C83.46 24.8 83.99 24.93 84.63 24.93Z" fill="#FFFFFF" fill-opacity="1.000000" fill-rule="nonzero"/>
	<path id="Vector" d="M85.61 23.73Q85.91 23.58 86.1 23.33Q86.15 23.28 86.18 23.22Q86.4 22.87 86.41 22.38L86.43 21.4L92.53 21.4L92.53 22.41Q92.51 23.73 92.05 24.88Q91.8 25.48 91.43 26.04Q91.11 26.51 90.72 26.92Q89.83 27.86 88.61 28.48Q88.44 28.56 88.28 28.63Q86.66 29.35 84.72 29.35Q82.6 29.35 80.98 28.62Q79.76 28.07 78.84 27.2Q78.54 26.92 78.26 26.59Q78.1 26.4 77.96 26.19Q77.11 25.04 76.66 23.61Q76.15 21.94 76.15 20.06L76.15 19.62Q76.15 17.72 76.66 16.07Q77.16 14.47 78.13 13.25Q78.2 13.17 78.26 13.09Q78.57 12.72 78.92 12.39Q79.81 11.57 80.97 11.04Q82.58 10.32 84.69 10.32Q86.95 10.32 88.69 11.2Q89.67 11.7 90.42 12.43Q91.03 13.03 91.49 13.79Q91.53 13.86 91.57 13.94Q92.51 15.54 92.53 17.68L92.53 18.69L86.43 18.69L86.41 17.71Q86.4 17.12 86.17 16.65Q86.04 16.37 85.83 16.18Q85.72 16.07 85.59 15.99L85.57 15.98L85.56 15.97Q85.21 15.73 84.62 15.73Q83.97 15.73 83.61 15.97Q83.51 16.04 83.42 16.12Q83.17 16.34 83.01 16.67Q82.74 17.22 82.63 17.95Q82.52 18.73 82.52 19.62L82.52 20.06Q82.52 20.95 82.63 21.76Q82.73 22.48 83 23.02Q83.15 23.32 83.38 23.53Q83.48 23.62 83.6 23.7Q83.96 23.93 84.63 23.93Q85.2 23.93 85.61 23.73ZM84.63 24.93Q85.44 24.93 86.06 24.63C86.47 24.42 86.8 24.12 87.03 23.75C87.27 23.36 87.4 22.91 87.41 22.4L91.53 22.4Q91.52 22.91 91.44 23.4Q91.33 24.01 91.09 24.57Q90.89 25.05 90.6 25.48Q90.36 25.83 90.08 26.14L90.08 26.14Q89.29 27.02 88.15 27.59Q88.12 27.61 88.09 27.62Q88.08 27.62 88.08 27.63Q86.57 28.35 84.72 28.35Q82.81 28.35 81.38 27.71Q80.29 27.22 79.48 26.43L79.48 26.43Q79.24 26.2 79.03 25.95Q78.96 25.86 78.89 25.77L78.88 25.77Q78.05 24.69 77.62 23.31Q77.15 21.79 77.15 20.06L77.15 19.62Q77.15 17.87 77.62 16.37Q78.09 14.85 79.03 13.73Q79.28 13.42 79.57 13.15L79.57 13.15Q80.35 12.42 81.38 11.95Q82.8 11.32 84.69 11.32Q86.71 11.32 88.23 12.09Q89.1 12.53 89.76 13.19Q90.26 13.68 90.63 14.31Q90.63 14.31 90.64 14.32Q91.28 15.36 91.46 16.69Q91.52 17.17 91.53 17.69L87.41 17.69C87.4 17.14 87.28 16.65 87.06 16.2Q86.9 15.86 86.65 15.59Q86.42 15.33 86.12 15.14C85.72 14.87 85.21 14.73 84.62 14.73Q83.66 14.73 83.05 15.14Q82.89 15.25 82.74 15.38Q82.35 15.73 82.11 16.23C81.89 16.69 81.73 17.21 81.64 17.8C81.56 18.37 81.52 18.98 81.52 19.62L81.52 20.06Q81.52 21.02 81.64 21.9C81.72 22.48 81.87 23 82.1 23.46C82.33 23.92 82.65 24.27 83.05 24.54Q83.66 24.93 84.63 24.93Z" fill="#000000" fill-opacity="1.000000" fill-rule="evenodd"/>
	<path id="Vector" d="M74.23 4.73L74.23 28.04L69.85 28.04L69.85 4.73L74.23 4.73Z" fill="#FFFFFF" fill-opacity="1.000000" fill-rule="nonzero"/>
	<path id="Vector" d="M75.23 3.73L68.85 3.73L68.85 29.04L75.23 29.04L75.23 3.73ZM74.23 28.04L74.23 4.73L69.85 4.73L69.85 28.04L74.23 28.04Z" fill="#000000" fill-opacity="1.000000" fill-rule="evenodd"/>
	<path id="Vector" d="M67.24 24.49L67.24 28.04L55.47 28.04L55.47 24.49L67.24 24.49ZM56.96 5.94L56.96 28.04L52.4 28.04L52.4 5.94L56.96 5.94ZM65.7 14.94L65.7 18.4L55.47 18.4L55.47 14.94L65.7 14.94ZM67.22 5.94L67.22 9.51L55.47 9.51L55.47 5.94L67.22 5.94Z" fill="#FFFFFF" fill-opacity="1.000000" fill-rule="nonzero"/>
	<path id="Vector" d="M54.47 29.04L68.24 29.04L68.24 23.49L57.96 23.49L57.96 19.4L66.7 19.4L66.7 13.94L57.96 13.94L57.96 10.51L68.22 10.51L68.22 4.94L51.4 4.94L51.4 29.04L54.47 29.04ZM54.47 28.04L67.24 28.04L67.24 24.49L56.96 24.49L56.96 18.4L65.7 18.4L65.7 14.94L56.96 14.94L56.96 9.51L67.22 9.51L67.22 5.94L52.4 5.94L52.4 28.04L54.47 28.04Z" fill="#000000" fill-opacity="1.000000" fill-rule="evenodd"/>
	<path id="Rectangle 83 (Stroke)" d="M15.61 17.78L15.61 4.41C15.61 2.53 17.14 1 19.03 1L35.2 1C37.08 1 38.62 2.53 38.62 4.41L38.62 17.78C38.62 19.67 37.08 21.2 35.2 21.2L19.03 21.2C17.14 21.2 15.61 19.67 15.61 17.78ZM18.1 17.78C18.1 18.3 18.51 18.72 19.03 18.72L35.2 18.72C35.71 18.72 36.13 18.3 36.13 17.78L36.13 4.41C36.13 3.9 35.71 3.48 35.2 3.48L19.03 3.48C18.51 3.48 18.1 3.9 18.1 4.41L18.1 17.78Z" fill="#FFFFFF" fill-opacity="1.000000" fill-rule="evenodd"/>
	<path id="Rectangle 83 (Stroke)" d="M14.61 4.41L14.61 17.78Q14.61 18.7 14.93 19.48Q15.26 20.26 15.9 20.91Q16.55 21.56 17.33 21.88Q18.11 22.2 19.03 22.2L35.2 22.2Q36.11 22.2 36.89 21.88Q37.67 21.56 38.32 20.91Q38.97 20.26 39.29 19.48Q39.62 18.7 39.62 17.78L39.62 4.41Q39.62 3.5 39.29 2.72Q38.97 1.94 38.32 1.29Q37.67 0.64 36.89 0.32Q36.11 0 35.2 0L19.03 0Q18.11 0 17.33 0.32Q16.55 0.64 15.9 1.29Q15.26 1.94 14.93 2.72Q14.61 3.5 14.61 4.41ZM15.61 17.78L15.61 4.41C15.61 2.53 17.14 1 19.03 1L35.2 1C37.08 1 38.62 2.53 38.62 4.41L38.62 17.78C38.62 19.67 37.08 21.2 35.2 21.2L19.03 21.2C17.14 21.2 15.61 19.67 15.61 17.78ZM18.1 17.78C18.1 18.3 18.51 18.72 19.03 18.72L35.2 18.72C35.71 18.72 36.13 18.3 36.13 17.78L36.13 4.41C36.13 3.9 35.71 3.48 35.2 3.48L19.03 3.48C18.51 3.48 18.1 3.9 18.1 4.41L18.1 17.78ZM19.1 17.72L35.13 17.72L35.13 4.48L19.1 4.48L19.1 17.72Z" fill="#000000" fill-opacity="1.000000" fill-rule="evenodd"/>
	<path id="Rectangle 84 (Stroke)" d="M1 29.91L1 16.54C1 14.65 2.53 13.12 4.41 13.12L20.58 13.12C22.47 13.12 24 14.65 24 16.54L24 29.91C24 31.8 22.47 33.33 20.58 33.33L4.41 33.33C2.53 33.33 1 31.8 1 29.91ZM3.48 29.91C3.48 30.42 3.9 30.84 4.41 30.84L20.58 30.84C21.1 30.84 21.52 30.42 21.52 29.91L21.52 16.54C21.52 16.03 21.1 15.61 20.58 15.61L4.41 15.61C3.9 15.61 3.48 16.03 3.48 16.54L3.48 29.91Z" fill="#FFFFFF" fill-opacity="1.000000" fill-rule="evenodd"/>
	<path id="Rectangle 84 (Stroke)" d="M0 16.54L0 29.91Q0 30.83 0.32 31.61Q0.64 32.39 1.29 33.04Q1.94 33.68 2.72 34.01Q3.5 34.33 4.41 34.33L20.58 34.33Q21.5 34.33 22.28 34.01Q23.06 33.68 23.71 33.04Q24.35 32.39 24.68 31.61Q25 30.83 25 29.91L25 16.54Q25 15.63 24.68 14.84Q24.35 14.06 23.71 13.42Q23.06 12.77 22.28 12.44Q21.5 12.12 20.58 12.12L4.41 12.12Q3.5 12.12 2.72 12.44Q1.94 12.77 1.29 13.42Q0.64 14.06 0.32 14.84Q0 15.63 0 16.54ZM1 29.91L1 16.54C1 14.65 2.53 13.12 4.41 13.12L20.58 13.12C22.47 13.12 24 14.65 24 16.54L24 29.91C24 31.8 22.47 33.33 20.58 33.33L4.41 33.33C2.53 33.33 1 31.8 1 29.91ZM3.48 29.91C3.48 30.42 3.9 30.84 4.41 30.84L20.58 30.84C21.1 30.84 21.52 30.42 21.52 29.91L21.52 16.54C21.52 16.03 21.1 15.61 20.58 15.61L4.41 15.61C3.9 15.61 3.48 16.03 3.48 16.54L3.48 29.91ZM4.48 29.84L20.52 29.84L20.52 16.61L4.48 16.61L4.48 29.84Z" fill="#000000" fill-opacity="1.000000" fill-rule="evenodd"/>
	<path id="Rectangle 85 (Stroke)" d="M25.87 29.91L25.87 26.49C25.87 24.6 27.4 23.07 29.29 23.07L35.2 23.07C37.08 23.07 38.62 24.6 38.62 26.49L38.62 29.91C38.62 31.8 37.08 33.33 35.2 33.33L29.29 33.33C27.4 33.33 25.87 31.8 25.87 29.91ZM28.36 29.91C28.36 30.42 28.77 30.84 29.29 30.84L35.2 30.84C35.71 30.84 36.13 30.42 36.13 29.91L36.13 26.49C36.13 25.97 35.71 25.56 35.2 25.56L29.29 25.56C28.77 25.56 28.36 25.97 28.36 26.49L28.36 29.91Z" fill="#63D23A" fill-opacity="1.000000" fill-rule="evenodd"/>
	<path id="Rectangle 85 (Stroke)" d="M24.87 26.49L24.87 29.91Q24.87 30.4 24.97 30.86Q25.06 31.25 25.22 31.63Q25.38 32.01 25.6 32.34Q25.84 32.72 26.16 33.04Q26.48 33.36 26.85 33.6Q27.19 33.82 27.57 33.98Q27.94 34.14 28.34 34.23Q28.8 34.33 29.29 34.33L35.2 34.33Q35.68 34.33 36.15 34.23Q36.54 34.14 36.92 33.98Q37.29 33.82 37.63 33.6Q38 33.36 38.32 33.04Q38.64 32.72 38.89 32.34Q39.11 32.01 39.27 31.63Q39.43 31.25 39.51 30.86Q39.62 30.4 39.62 29.91L39.62 26.49Q39.62 26 39.51 25.54Q39.43 25.15 39.27 24.77Q39.11 24.39 38.89 24.05Q38.64 23.68 38.32 23.36Q38 23.04 37.63 22.8Q37.29 22.58 36.92 22.42Q36.54 22.26 36.15 22.17Q35.68 22.07 35.2 22.07L29.29 22.07Q28.8 22.07 28.34 22.17Q27.94 22.26 27.57 22.42Q27.19 22.58 26.85 22.8Q26.48 23.04 26.16 23.36Q25.84 23.68 25.6 24.05Q25.38 24.39 25.22 24.77Q25.06 25.15 24.97 25.54Q24.87 26 24.87 26.49ZM25.87 29.91L25.87 26.49C25.87 24.6 27.4 23.07 29.29 23.07L35.2 23.07C37.08 23.07 38.62 24.6 38.62 26.49L38.62 29.91C38.62 31.8 37.08 33.33 35.2 33.33L29.29 33.33C27.4 33.33 25.87 31.8 25.87 29.91ZM28.36 29.91C28.36 30.42 28.77 30.84 29.29 30.84L35.2 30.84C35.71 30.84 36.13 30.42 36.13 29.91L36.13 26.49C36.13 25.97 35.71 25.56 35.2 25.56L29.29 25.56C28.77 25.56 28.36 25.97 28.36 26.49L28.36 29.91ZM29.36 29.84L35.13 29.84L35.13 26.56L29.36 26.56L29.36 29.84Z" fill="#000000" fill-opacity="1.000000" fill-rule="evenodd"/>
</svg>
