<svg width="18.585266" height="13.516541" viewBox="0 0 18.5853 13.5165" fill="none" xmlns="http://www.w3.org/2000/svg" xmlns:xlink="http://www.w3.org/1999/xlink">
	<desc>
			Created with Pixso.
	</desc>
	<defs/>
	<path d="M18.19 2.11C17.98 1.28 17.35 0.62 16.55 0.4C15.1 0 9.29 0 9.29 0C9.29 0 3.48 0 2.03 0.4C1.23 0.62 0.6 1.28 0.38 2.11C0 3.62 0 6.77 0 6.77C0 6.77 0 9.91 0.38 11.42C0.6 12.25 1.23 12.89 2.03 13.11C3.48 13.51 9.29 13.51 9.29 13.51C9.29 13.51 15.1 13.51 16.55 13.11C17.35 12.89 17.98 12.25 18.19 11.42C18.58 9.91 18.58 6.77 18.58 6.77C18.58 6.77 18.58 3.62 18.19 2.11ZM7.39 9.63L7.39 3.91L12.24 6.77L7.39 9.63Z" fill="#5B5B5B" fill-opacity="1.000000" fill-rule="nonzero"/>
</svg>
